<svg width="32" height="32" viewBox="0 0 32 32" fill="none" xmlns="http://www.w3.org/2000/svg">
<path d="M7.79883 11.6663H11.2207C11.5894 11.6663 11.9113 11.8336 12.125 12.1047V12.1057C12.8924 13.0935 14.1004 13.7875 15.4062 13.7961H24.2012C24.2579 13.7961 24.2891 13.7963 24.3154 13.7981C24.3238 13.7987 24.3295 13.7996 24.333 13.8L24.3701 13.8098L24.4082 13.8167C24.536 13.8373 24.6537 13.8825 24.7705 13.9543L24.7881 13.9641C25.1207 14.1549 25.3496 14.5218 25.3496 14.9456V24.2083C25.3495 24.8352 24.8385 25.3498 24.2012 25.3499H7.79883C7.16154 25.3498 6.65047 24.8352 6.65039 24.2083V12.8147C6.65043 12.3946 6.87558 12.0301 7.20508 11.8411L7.21875 11.8333L7.23242 11.8245C7.33099 11.7614 7.45687 11.7106 7.60547 11.6819L7.61816 11.6799C7.65423 11.6723 7.71613 11.6663 7.79883 11.6663Z" stroke="#195B35" stroke-opacity="0.5" stroke-width="1.3"/>
<path d="M10.0426 6.65039H21.9576C22.7259 6.65039 23.3463 7.27489 23.3463 8.03906V11.3477C23.3462 11.4297 23.2805 11.4941 23.1988 11.4941H15.4176C14.9849 11.494 14.4828 11.2723 14.0914 10.8721L13.9313 10.6904C13.2789 9.8502 12.2867 9.36426 11.2203 9.36426H8.80041C8.71839 9.3641 8.65392 9.29841 8.65392 9.2168V8.03906C8.65392 7.27635 9.27988 6.65039 10.0426 6.65039Z" stroke="#195B35" stroke-opacity="0.5" stroke-width="1.3"/>
</svg>
