<svg width="34" height="34" viewBox="0 0 34 34" fill="none" xmlns="http://www.w3.org/2000/svg">
<path d="M34 14.3505C34 11.2769 31.51 8.7921 28.43 8.7921H23.47L23.33 8.57256L21.73 6.02786C21.33 5.38919 20.62 5 19.86 5H13.82C13.06 5 12.35 5.38919 11.94 6.03784L10.21 8.7921H7.91V8.16341C7.91 7.58462 7.44 7.11559 6.85 7.11559H4.66C4.08 7.11559 3.6 7.59459 3.6 8.17339V8.7921C1.61 8.7921 0 10.4087 0 12.3946V25.3676C0 27.3534 1.61 28.9601 3.6 28.9601H12.03V28.98H16.35C16.57 28.99 16.78 29 17 29C17.22 29 17.43 28.99 17.65 28.98H27.28V28.9601H27.72C31.06 28.9601 33.77 26.2657 33.77 22.9326C33.77 22.9326 33.96 20.2482 32.41 18.7015C30.83 17.1247 28.59 17.1746 26.82 16.8254C25.24 16.4961 24.05 15.8374 24.05 13.4025C24.05 12.8736 24.2 12.4844 24.42 12.215C24.97 11.5064 25.95 11.4865 25.95 11.4865H28.25C29.76 11.4865 30.98 12.7039 30.98 14.2108C30.98 14.3405 31.09 14.4503 31.22 14.4503H33.9C33.96 14.4503 34 14.4104 34 14.3505ZM9.3 26.0462H4.85C3.8 26.0462 2.95 25.1979 2.95 24.1501V13.4324C2.95 12.3746 3.8 11.5264 4.85 11.5264H9.3C9.3 11.5264 9.65 11.5264 10.17 11.6162C10.96 11.7659 12.16 12.1152 13.19 12.9933C14.34 13.9713 15.28 15.5879 15.28 18.2624C15.28 21.6952 14.12 23.6112 12.82 24.689C12.54 24.4994 12.29 24.2898 12.05 24.0503C10.72 22.763 9.89 20.9667 9.89 18.9709C9.89 16.9751 10.68 15.2586 11.96 13.9813C12.17 13.7717 12.14 13.4125 11.87 13.2628C10.96 12.7439 9.95 12.5842 9.51 12.5443C9.37 12.5343 9.24 12.5842 9.15 12.694C7.77 14.4104 6.94 16.5958 6.94 18.9709C6.94 21.3459 7.71 23.3617 9 25.0482C9.26 25.3775 9.54 25.6969 9.84 25.9963C9.51 26.0462 9.3 26.0462 9.3 26.0462ZM24.47 18.911C25.09 19.0707 26.05 19.1505 27.04 19.3202C28.96 19.6295 31.02 20.2782 30.98 22.5035C30.95 24.4894 29.21 26.0462 27.22 26.0462H24.11C24.42 25.7368 24.72 25.3975 24.99 25.0482C25.94 23.8108 26.61 22.3339 26.89 20.7372C26.93 20.5077 26.77 20.2981 26.55 20.2582C25.98 20.1584 25 19.9988 24.45 19.899C24.22 19.859 24.02 20.0187 23.98 20.2383C23.61 22.284 22.36 24.0304 20.63 25.0482C19.62 25.657 18.44 26.0262 17.18 26.0462H16.82C16.46 26.0462 16.11 26.0062 15.77 25.9464C15.73 25.8765 15.73 25.7867 15.79 25.7168C17 24.19 17.98 21.8848 17.98 18.4719C17.98 15.3884 16.96 13.3326 15.78 11.9954C15.71 11.9056 15.64 11.8258 15.56 11.7459C15.45 11.6262 15.53 11.4366 15.69 11.4366H19.08C20.24 11.4366 21.2 12.2948 21.36 13.3925C21.38 13.5123 21.39 13.622 21.39 13.7418C21.39 15.7576 22.26 18.0628 24.09 18.7913C24.21 18.8312 24.34 18.8811 24.47 18.911Z" fill="#195B35"/>
</svg>
