<svg width="32" height="32" viewBox="0 0 32 32" fill="none" xmlns="http://www.w3.org/2000/svg">
<path d="M15.9966 6.65039C18.3999 6.65049 20.3482 8.5986 20.3482 11.002C20.3481 13.4052 18.3999 15.3534 15.9966 15.3535C13.5933 15.3535 11.6452 13.4053 11.6451 11.002C11.6451 8.59854 13.5932 6.65039 15.9966 6.65039Z" stroke="#195B35" stroke-opacity="0.5" stroke-width="1.3"/>
<path d="M16 18.0858H16.376C20.8087 18.2272 24.3848 20.8554 25.3223 24.2098L25.3232 24.2118C25.3932 24.4594 25.3262 24.7202 25.1143 24.9452C24.898 25.1745 24.5375 25.3504 24.0928 25.3504H7.90723C7.46106 25.3504 7.10121 25.1758 6.88574 24.9481C6.70126 24.753 6.62547 24.5284 6.65723 24.3055L6.67773 24.2108C7.64851 20.768 11.3954 18.0858 16 18.0858Z" stroke="#195B35" stroke-opacity="0.5" stroke-width="1.3"/>
</svg>
