<svg width="32" height="32" viewBox="0 0 32 32" fill="none" xmlns="http://www.w3.org/2000/svg">
<rect width="32" height="32" rx="8" fill="#195B35"/>
<path d="M7.87598 6.65039H24.124C24.8015 6.65039 25.3496 7.19869 25.3496 7.87695V9.09668C25.3496 9.47167 25.1781 9.82739 24.8906 10.0557L24.8887 10.0566L21.835 12.498L21.3281 12.9033L21.7334 13.4111C22.7391 14.6704 23.3477 16.2642 23.3477 18C23.3477 22.0575 20.0555 25.3496 16 25.3496C11.9445 25.3496 8.65234 22.0575 8.65234 18C8.65234 16.2642 9.26092 14.6704 10.2666 13.4111L10.6719 12.9033L10.165 12.498L7.11133 10.0566C6.81812 9.81772 6.65039 9.46664 6.65039 9.09668V7.87695C6.65039 7.19869 7.19851 6.65039 7.87598 6.65039Z" fill="#FFFDF5" stroke="#FFFDF5" stroke-width="1.3"/>
<path d="M15.9999 12.9996C17.569 12.9996 18.9731 13.7336 19.8934 14.8795L20.0077 15.0221C20.6266 15.86 20.992 16.8822 20.9921 17.9928C20.9921 20.7451 18.7507 22.9869 15.9999 22.9869C13.2491 22.9868 11.0087 20.7451 11.0087 17.9928C11.0087 16.8208 11.4192 15.7356 12.1063 14.8795L12.1073 14.8775C13.0192 13.7342 14.4295 12.9997 15.9999 12.9996Z" fill="#195B35" stroke="#195B35" stroke-width="1.3"/>
</svg>
