<svg width="32" height="32" viewBox="0 0 32 32" fill="none" xmlns="http://www.w3.org/2000/svg">
<rect width="32" height="32" rx="8" fill="#195B35"/>
<path d="M13.0424 7.06076C13.1127 7.03761 13.1992 7.06915 13.2387 7.13596L13.2397 7.13693L16.0893 11.9348C16.1552 12.0494 16.0699 12.1926 15.9418 12.1926H7.68106C7.54853 12.1926 7.47938 12.0583 7.52481 11.9621L7.52579 11.9612C8.6064 9.66043 10.603 7.87028 13.0414 7.06174L13.0424 7.06076Z" fill="#FFFDF5" stroke="#FFFDF5" stroke-width="1.2"/>
<path d="M16.0616 19.7995H24.3233C24.4556 19.7997 24.5238 19.9339 24.4786 20.03L24.4776 20.032C23.397 22.3395 21.4013 24.1297 18.963 24.9382L18.962 24.9392C18.8916 24.9625 18.8052 24.9309 18.7657 24.864L18.7648 24.863L15.9161 20.0593C15.8488 19.9446 15.9332 19.7998 16.0616 19.7995Z" fill="#FFFDF5" stroke="#FFFDF5" stroke-width="1.2"/>
<path d="M15.4577 6.61816C17.9957 6.45914 20.5223 7.35401 22.405 9.10449L22.4206 9.11914C22.4649 9.17432 22.4754 9.25589 22.4382 9.31934L19.5945 14.1318V14.1328C19.5298 14.2424 19.3697 14.2464 19.3025 14.125L15.3327 6.86719L15.3318 6.86621L15.3161 6.82617C15.3054 6.78495 15.3112 6.74132 15.3327 6.70117C15.3537 6.66237 15.3833 6.6367 15.4197 6.625L15.4577 6.61816Z" fill="#FFFDF5" stroke="#FFFDF5" stroke-width="1.2"/>
<path d="M12.4102 17.867C12.4668 17.7715 12.5955 17.7562 12.6719 17.8348L12.7012 17.8748L16.6719 25.1326V25.1346C16.7004 25.1866 16.7004 25.2454 16.6719 25.2987C16.6441 25.3506 16.5998 25.3782 16.5459 25.3817C14.0082 25.5405 11.4822 24.6456 9.59962 22.8953L9.57912 22.8768C9.53803 22.8215 9.53 22.7422 9.56642 22.6805L12.4092 17.868L12.4102 17.867Z" fill="#FFFDF5" stroke="#FFFDF5" stroke-width="1.2"/>
<path d="M23.5456 10.824C23.6039 10.7274 23.7258 10.7196 23.7966 10.781L23.824 10.8113C25.1527 12.8081 25.6715 15.258 25.2585 17.6346L25.1618 18.076C25.1467 18.1449 25.08 18.2039 24.9929 18.2039L19.4177 18.1629H19.4128C19.2924 18.1627 19.2082 18.0221 19.2761 17.9109L19.2781 17.908L23.5456 10.824Z" fill="#FFFDF5" stroke="#FFFDF5" stroke-width="1.2"/>
<path d="M12.5791 13.8379H12.584C12.7045 13.8379 12.7887 13.9776 12.7207 14.0888L12.7188 14.0918L8.45117 21.1767C8.38454 21.2869 8.23444 21.2808 8.17285 21.1884C6.83032 19.1707 6.31682 16.6907 6.75391 14.291L6.83496 13.9238C6.85013 13.8551 6.9163 13.7953 7.00293 13.7949L12.5791 13.8379Z" fill="#FFFDF5" stroke="#FFFDF5" stroke-width="1.2"/>
</svg>
